<?xml version="1.0" encoding="UTF-8"?>
<!DOCTYPE svg PUBLIC "-//W3C//DTD SVG 1.1//EN" "http://www.w3.org/Graphics/SVG/1.1/DTD/svg11.dtd">
<svg xmlns="http://www.w3.org/2000/svg" version="1.1" width="2185px" height="1847px" style="shape-rendering:geometricPrecision; text-rendering:geometricPrecision; image-rendering:optimizeQuality; fill-rule:evenodd; clip-rule:evenodd" xmlns:xlink="http://www.w3.org/1999/xlink">
<g><path style="opacity:0.995" fill="#fefffe" d="M 1044.5,-0.5 C 1075.83,-0.5 1107.17,-0.5 1138.5,-0.5C 1406.76,14.1854 1638.76,112.352 1834.5,294C 2026.95,480.105 2135.45,707.272 2160,975.5C 2178.01,1246.07 2105.34,1488.74 1942,1703.5C 1909.88,1744.29 1874.88,1782.63 1837,1818.5C 1773.67,1756.67 1710.5,1694.67 1647.5,1632.5C 1793,1493.48 1875.5,1323.15 1895,1121.5C 1909.62,886.972 1837.28,684.305 1678,513.5C 1523.78,357.175 1336.28,274.342 1115.5,265C 893.537,261.514 700.87,333.848 537.5,482C 374.249,638.574 290.249,830.574 285.5,1058C 290.025,1284.14 373.191,1475.31 535,1631.5C 535.667,1632.5 535.667,1633.5 535,1634.5C 472.319,1696.01 409.486,1757.35 346.5,1818.5C 198.9,1677.41 100.067,1507.08 50,1307.5C -6.19214,1066.27 17.4745,833.267 121,608.5C 202.758,438.526 320.925,299.36 475.5,191C 646.79,73.6246 836.456,9.79128 1044.5,-0.5 Z"/></g>
<g><path style="opacity:0.994" fill="#fefffe" d="M 1026.5,1205.5 C 1027.04,1205.56 1027.38,1205.89 1027.5,1206.5C 916.882,1416.24 805.882,1625.74 694.5,1835C 591.167,1835.67 487.833,1835.67 384.5,1835C 598.395,1624.94 812.395,1415.1 1026.5,1205.5 Z"/></g>
<g><path style="opacity:0.994" fill="#fefffe" d="M 1155.5,1206.5 C 1155.9,1205.47 1156.56,1205.31 1157.5,1206C 1371.17,1415.67 1584.83,1625.33 1798.5,1835C 1695.17,1835.83 1591.83,1835.67 1488.5,1834.5C 1377.47,1625.11 1266.47,1415.77 1155.5,1206.5 Z"/></g>
</svg>
